<svg xmlns="http://www.w3.org/2000/svg" xmlns:xlink="http://www.w3.org/1999/xlink" width="700" zoomAndPan="magnify" viewBox="0 0 525 525.000007" height="700" preserveAspectRatio="xMidYMid meet" version="1.0"><defs><clipPath id="da4fe1cc53"><path d="M 0.5 385 L 116 385 L 116 523.972656 L 0.5 523.972656 Z M 0.5 385 " clip-rule="nonzero"/></clipPath><clipPath id="7c5e960775"><path d="M 0.5 348 L 50 348 L 50 461 L 0.5 461 Z M 0.5 348 " clip-rule="nonzero"/></clipPath><clipPath id="cd6d684397"><path d="M 0.5 309 L 53 309 L 53 388 L 0.5 388 Z M 0.5 309 " clip-rule="nonzero"/></clipPath><clipPath id="cb2aa0745b"><path d="M 184 413 L 310 413 L 310 523.972656 L 184 523.972656 Z M 184 413 " clip-rule="nonzero"/></clipPath><clipPath id="d8929802c9"><path d="M 103 501 L 181 501 L 181 523.972656 L 103 523.972656 Z M 103 501 " clip-rule="nonzero"/></clipPath><clipPath id="0dcf3561dc"><path d="M 260 494 L 344 494 L 344 523.972656 L 260 523.972656 Z M 260 494 " clip-rule="nonzero"/></clipPath><clipPath id="79cf7cd761"><path d="M 147 299.402344 L 244 299.402344 L 244 411 L 147 411 Z M 147 299.402344 " clip-rule="nonzero"/></clipPath><clipPath id="8766a039a1"><path d="M 85 459 L 169 459 L 169 523.972656 L 85 523.972656 Z M 85 459 " clip-rule="nonzero"/></clipPath><clipPath id="c2aee1f76f"><path d="M 0.5 489 L 46 489 L 46 523.972656 L 0.5 523.972656 Z M 0.5 489 " clip-rule="nonzero"/></clipPath></defs><path fill="#14df47" d="M 183.097656 356.125 L 183.097656 414.9375 L 132.167969 444.339844 L 81.238281 414.9375 L 81.238281 356.125 L 132.167969 326.722656 Z M 183.097656 356.125 " fill-opacity="1" fill-rule="nonzero"/><path fill="#14df47" d="M 271.367188 356.941406 L 271.367188 390.710938 L 242.121094 407.59375 L 212.878906 390.710938 L 212.878906 356.941406 L 242.121094 340.054688 Z M 271.367188 356.941406 " fill-opacity="1" fill-rule="nonzero"/><g clip-path="url(#da4fe1cc53)"><path fill="#0ead36" d="M 115.363281 423.429688 L 115.363281 499.226562 L 88.246094 514.882812 L 85.28125 516.59375 L 72.453125 524 L 26.988281 524 L 0.644531 508.789062 L 0.644531 413.867188 L 49.722656 385.53125 L 81.238281 403.730469 Z M 115.363281 423.429688 " fill-opacity="1" fill-rule="nonzero"/></g><g clip-path="url(#7c5e960775)"><path fill="#14df47" d="M 49.722656 376.507812 L 49.722656 432.382812 L 1.335938 460.316406 L 0.644531 459.917969 L 0.644531 348.96875 L 1.335938 348.570312 L 41.140625 371.554688 L 44.105469 373.265625 Z M 49.722656 376.507812 " fill-opacity="1" fill-rule="nonzero"/></g><g clip-path="url(#cd6d684397)"><path fill="#0ead36" d="M 19.011719 309.390625 L 0.644531 319.996094 L 0.644531 323.417969 L 19.011719 312.8125 L 49.980469 330.691406 L 49.980469 366.449219 L 41.140625 371.554688 L 19.011719 384.328125 L 0.644531 373.722656 L 0.644531 377.144531 L 19.011719 387.75 L 44.105469 373.265625 L 52.945312 368.160156 L 52.945312 328.984375 Z M 19.011719 309.390625 " fill-opacity="1" fill-rule="nonzero"/></g><g clip-path="url(#cb2aa0745b)"><path fill="#14df47" d="M 309.535156 449.699219 L 309.535156 521.652344 L 305.46875 524 L 188.972656 524 L 184.910156 521.652344 L 184.910156 449.699219 L 247.222656 413.722656 L 279.433594 432.320312 Z M 309.535156 449.699219 " fill-opacity="1" fill-rule="nonzero"/></g><g clip-path="url(#d8929802c9)"><path fill="#0ead36" d="M 180.183594 524 L 103.042969 524 L 141.613281 501.730469 L 165.21875 515.359375 L 168.183594 517.070312 Z M 180.183594 524 " fill-opacity="1" fill-rule="nonzero"/></g><path fill="#0ead36" d="M 369.042969 408.074219 L 369.042969 459.808594 L 324.238281 485.675781 L 279.433594 459.808594 L 279.433594 408.074219 L 324.238281 382.207031 Z M 369.042969 408.074219 " fill-opacity="1" fill-rule="nonzero"/><g clip-path="url(#0dcf3561dc)"><path fill="#0ead36" d="M 309.535156 498.640625 L 302.300781 494.464844 L 260.699219 518.480469 L 260.699219 524 L 263.664062 524 L 263.664062 520.191406 L 302.296875 497.882812 L 309.535156 502.0625 L 340.933594 520.191406 L 340.933594 524 L 343.898438 524 L 343.898438 518.480469 Z M 309.535156 498.640625 " fill-opacity="1" fill-rule="nonzero"/></g><path fill="#0ead36" d="M 471.953125 375.46875 L 471.953125 415.367188 L 437.402344 435.3125 L 402.851562 415.367188 L 402.851562 375.46875 L 437.402344 355.519531 Z M 471.953125 375.46875 " fill-opacity="1" fill-rule="nonzero"/><path fill="#14df47" d="M 402.851562 379.875 L 389.40625 372.113281 L 353.375 392.917969 L 353.375 434.527344 L 369.042969 443.574219 L 389.40625 455.332031 L 425.441406 434.527344 L 425.441406 392.917969 Z M 422.480469 432.8125 L 389.40625 451.90625 L 369.042969 440.148438 L 356.339844 432.8125 L 356.339844 394.628906 L 389.40625 375.535156 L 402.851562 383.296875 L 422.476562 394.628906 L 422.476562 432.8125 Z M 422.480469 432.8125 " fill-opacity="1" fill-rule="nonzero"/><g clip-path="url(#79cf7cd761)"><path fill="#0ead36" d="M 195.695312 299.398438 L 147.789062 327.058594 L 147.789062 382.382812 L 183.097656 402.769531 L 195.695312 410.042969 L 221.027344 395.414062 L 243.605469 382.378906 L 243.605469 327.058594 Z M 240.640625 380.667969 L 218.070312 393.707031 L 218.066406 393.707031 L 195.695312 406.621094 L 183.097656 399.347656 L 150.75 380.671875 L 150.75 328.773438 L 195.695312 302.824219 L 240.640625 328.773438 Z M 240.640625 380.667969 " fill-opacity="1" fill-rule="nonzero"/></g><g clip-path="url(#8766a039a1)"><path fill="#14df47" d="M 126.730469 459.617188 L 115.363281 466.179688 L 85.28125 483.546875 L 85.28125 524 L 88.246094 524 L 88.246094 485.261719 L 115.363281 469.605469 L 126.730469 463.039062 L 165.21875 485.261719 L 165.21875 524 L 168.183594 524 L 168.183594 483.546875 Z M 126.730469 459.617188 " fill-opacity="1" fill-rule="nonzero"/></g><g clip-path="url(#c2aee1f76f)"><path fill="#14df47" d="M 0.644531 489.011719 L 0.644531 492.429688 L 42.644531 516.679688 L 42.644531 524 L 45.605469 524 L 45.605469 514.96875 Z M 0.644531 489.011719 " fill-opacity="1" fill-rule="nonzero"/></g></svg>