<svg xmlns="http://www.w3.org/2000/svg" xmlns:xlink="http://www.w3.org/1999/xlink" width="450" zoomAndPan="magnify" viewBox="0 0 337.5 160.499995" height="214" preserveAspectRatio="xMidYMid meet" version="1.0"><defs><clipPath id="4b7e8fbe9c"><path d="M 0.273438 61 L 83 61 L 83 160 L 0.273438 160 Z M 0.273438 61 " clip-rule="nonzero"/></clipPath><clipPath id="a3671f2cc5"><path d="M 0.273438 35 L 36 35 L 36 115 L 0.273438 115 Z M 0.273438 35 " clip-rule="nonzero"/></clipPath><clipPath id="7336447950"><path d="M 0.273438 7 L 38 7 L 38 63 L 0.273438 63 Z M 0.273438 7 " clip-rule="nonzero"/></clipPath><clipPath id="21d5c4792a"><path d="M 131 81 L 221 81 L 221 160 L 131 160 Z M 131 81 " clip-rule="nonzero"/></clipPath><clipPath id="6f86da29f1"><path d="M 73 144 L 129 144 L 129 160 L 73 160 Z M 73 144 " clip-rule="nonzero"/></clipPath><clipPath id="fc4dac62ec"><path d="M 185 138 L 245 138 L 245 160 L 185 160 Z M 185 138 " clip-rule="nonzero"/></clipPath><clipPath id="47c7091b63"><path d="M 286 39 L 335.980469 39 L 335.980469 97 L 286 97 Z M 286 39 " clip-rule="nonzero"/></clipPath><clipPath id="bce755ad2c"><path d="M 60 114 L 120 114 L 120 160 L 60 160 Z M 60 114 " clip-rule="nonzero"/></clipPath><clipPath id="3530f0dd71"><path d="M 0.273438 135 L 33 135 L 33 160 L 0.273438 160 Z M 0.273438 135 " clip-rule="nonzero"/></clipPath></defs><path fill="#090126" d="M 130.355469 40.410156 L 130.355469 82.308594 L 94.074219 103.253906 L 57.789062 82.308594 L 57.789062 40.410156 L 94.074219 19.464844 Z M 130.355469 40.410156 " fill-opacity="1" fill-rule="nonzero"/><path fill="#090126" d="M 193.238281 40.992188 L 193.238281 65.046875 L 172.402344 77.078125 L 151.570312 65.046875 L 151.570312 40.992188 L 172.402344 28.960938 Z M 193.238281 40.992188 " fill-opacity="1" fill-rule="nonzero"/><g clip-path="url(#4b7e8fbe9c)"><path fill="#2b1e59" d="M 82.101562 88.359375 L 82.101562 142.355469 L 62.78125 153.507812 L 60.671875 154.726562 L 51.53125 160.003906 L 19.140625 160.003906 L 0.375 149.167969 L 0.375 81.546875 L 35.335938 61.359375 L 57.792969 74.324219 Z M 82.101562 88.359375 " fill-opacity="1" fill-rule="nonzero"/></g><g clip-path="url(#a3671f2cc5)"><path fill="#090126" d="M 35.335938 54.929688 L 35.335938 94.734375 L 0.867188 114.636719 L 0.375 114.351562 L 0.375 35.3125 L 0.867188 35.027344 L 29.226562 51.402344 L 31.335938 52.621094 Z M 35.335938 54.929688 " fill-opacity="1" fill-rule="nonzero"/></g><g clip-path="url(#7336447950)"><path fill="#2b1e59" d="M 13.460938 7.117188 L 0.375 14.671875 L 0.375 17.109375 L 13.460938 9.554688 L 35.519531 22.292969 L 35.519531 47.765625 L 29.226562 51.402344 L 13.460938 60.5 L 0.375 52.945312 L 0.375 55.382812 L 13.460938 62.9375 L 31.335938 52.621094 L 37.632812 48.984375 L 37.632812 21.074219 Z M 13.460938 7.117188 " fill-opacity="1" fill-rule="nonzero"/></g><g clip-path="url(#21d5c4792a)"><path fill="#090126" d="M 220.429688 107.070312 L 220.429688 158.332031 L 217.53125 160.003906 L 134.539062 160.003906 L 131.644531 158.332031 L 131.644531 107.070312 L 176.035156 81.441406 L 198.984375 94.691406 Z M 220.429688 107.070312 " fill-opacity="1" fill-rule="nonzero"/></g><g clip-path="url(#6f86da29f1)"><path fill="#2b1e59" d="M 128.277344 160.003906 L 73.324219 160.003906 L 100.800781 144.140625 L 117.617188 153.847656 L 119.730469 155.066406 Z M 128.277344 160.003906 " fill-opacity="1" fill-rule="nonzero"/></g><path fill="#2b1e59" d="M 262.820312 77.417969 L 262.820312 114.273438 L 230.902344 132.699219 L 198.984375 114.273438 L 198.984375 77.417969 L 230.902344 58.992188 Z M 262.820312 77.417969 " fill-opacity="1" fill-rule="nonzero"/><g clip-path="url(#fc4dac62ec)"><path fill="#2b1e59" d="M 220.429688 141.9375 L 215.273438 138.960938 L 185.636719 156.070312 L 185.636719 160.003906 L 187.75 160.003906 L 187.75 157.289062 L 215.273438 141.398438 L 220.425781 144.375 L 242.796875 157.289062 L 242.796875 160.003906 L 244.90625 160.003906 L 244.90625 156.070312 Z M 220.429688 141.9375 " fill-opacity="1" fill-rule="nonzero"/></g><g clip-path="url(#47c7091b63)"><path fill="#2b1e59" d="M 336.136719 54.191406 L 336.136719 82.613281 L 311.523438 96.824219 L 286.90625 82.613281 L 286.90625 54.191406 L 311.523438 39.976562 Z M 336.136719 54.191406 " fill-opacity="1" fill-rule="nonzero"/></g><path fill="#090126" d="M 286.90625 57.332031 L 277.328125 51.800781 L 251.660156 66.621094 L 251.660156 96.265625 L 262.820312 102.707031 L 277.328125 111.085938 L 303 96.265625 L 303 66.621094 Z M 300.890625 95.042969 L 277.328125 108.644531 L 262.820312 100.269531 L 253.769531 95.042969 L 253.769531 67.839844 L 277.328125 54.238281 L 286.90625 59.769531 L 300.886719 67.839844 L 300.886719 95.042969 Z M 300.890625 95.042969 " fill-opacity="1" fill-rule="nonzero"/><path fill="#2b1e59" d="M 139.328125 0 L 105.199219 19.703125 L 105.199219 59.113281 L 130.355469 73.640625 L 139.328125 78.820312 L 157.375 68.398438 L 173.460938 59.113281 L 173.460938 19.703125 Z M 171.347656 57.894531 L 155.265625 67.183594 L 139.328125 76.382812 L 130.355469 71.199219 L 107.3125 57.894531 L 107.3125 20.925781 L 139.328125 2.4375 L 171.347656 20.925781 Z M 171.347656 57.894531 " fill-opacity="1" fill-rule="nonzero"/><g clip-path="url(#bce755ad2c)"><path fill="#090126" d="M 90.199219 114.136719 L 82.101562 118.8125 L 60.671875 131.183594 L 60.671875 160.003906 L 62.78125 160.003906 L 62.78125 132.40625 L 82.101562 121.253906 L 90.199219 116.574219 L 117.617188 132.40625 L 117.617188 160.003906 L 119.730469 160.003906 L 119.730469 131.183594 Z M 90.199219 114.136719 " fill-opacity="1" fill-rule="nonzero"/></g><g clip-path="url(#3530f0dd71)"><path fill="#090126" d="M 0.375 135.078125 L 0.375 137.511719 L 30.292969 154.789062 L 30.292969 160.003906 L 32.40625 160.003906 L 32.40625 153.570312 Z M 0.375 135.078125 " fill-opacity="1" fill-rule="nonzero"/></g></svg>