<svg xmlns="http://www.w3.org/2000/svg" xmlns:xlink="http://www.w3.org/1999/xlink" width="630" zoomAndPan="magnify" viewBox="0 0 472.5 149.999998" height="200" preserveAspectRatio="xMidYMid meet" version="1.0"><defs><clipPath id="74327b16de"><path d="M 381 70 L 472 70 L 472 149.171875 L 381 149.171875 Z M 381 70 " clip-rule="nonzero"/></clipPath><clipPath id="f9d3041998"><path d="M 343 0.078125 L 405 0.078125 L 405 53 L 343 53 Z M 343 0.078125 " clip-rule="nonzero"/></clipPath></defs><g clip-path="url(#74327b16de)"><path fill="#090126" d="M 449.347656 70.804688 L 404.039062 70.804688 L 381.382812 110.042969 L 404.039062 149.277344 L 449.347656 149.277344 L 472 110.042969 L 449.347656 70.804688 " fill-opacity="1" fill-rule="nonzero"/></g><path fill="#090126" d="M 176.785156 13.558594 L 131.476562 13.558594 L 108.824219 52.796875 L 131.476562 92.035156 L 176.785156 92.035156 L 199.4375 52.796875 L 176.785156 13.558594 " fill-opacity="1" fill-rule="nonzero"/><path fill="#2b1e59" d="M 298.3125 10.332031 L 271.453125 10.332031 L 258.023438 33.59375 L 271.453125 56.855469 L 298.3125 56.855469 L 311.742188 33.59375 L 298.3125 10.332031 " fill-opacity="1" fill-rule="nonzero"/><path fill="#2b1e59" d="M 101.574219 68.789062 L 74.714844 68.789062 L 61.285156 92.050781 L 74.714844 115.308594 L 101.574219 115.308594 L 115.007812 92.050781 L 101.574219 68.789062 " fill-opacity="1" fill-rule="nonzero"/><g clip-path="url(#f9d3041998)"><path fill="#2b1e59" d="M 389.070312 0.0546875 L 358.808594 0.0546875 L 343.679688 26.257812 L 358.808594 52.460938 L 389.070312 52.460938 L 404.199219 26.257812 L 389.070312 0.0546875 " fill-opacity="1" fill-rule="nonzero"/></g><path fill="#2b1e59" d="M 184.269531 55.484375 L 154.011719 55.484375 L 138.882812 81.6875 L 154.011719 107.894531 L 184.269531 107.894531 L 199.398438 81.6875 L 184.269531 55.484375 " fill-opacity="1" fill-rule="nonzero"/><path fill="#090126" d="M 334.449219 41.375 L 289.140625 41.375 L 266.488281 80.613281 L 289.140625 119.847656 L 334.449219 119.847656 L 357.105469 80.613281 Z M 333.289062 43.386719 L 354.773438 80.613281 L 333.289062 117.835938 L 290.304688 117.835938 L 268.816406 80.613281 L 290.304688 43.386719 L 333.289062 43.386719 " fill-opacity="1" fill-rule="nonzero"/><path fill="#090126" d="M 375.335938 25.855469 L 330.027344 25.855469 L 307.371094 65.089844 L 330.027344 104.328125 L 375.335938 104.328125 L 397.988281 65.089844 Z M 374.171875 27.867188 L 395.660156 65.089844 L 374.171875 102.316406 L 331.191406 102.316406 L 309.699219 65.089844 L 331.191406 27.867188 L 374.171875 27.867188 " fill-opacity="1" fill-rule="nonzero"/><path fill="#2b1e59" d="M 245.851562 44.195312 L 221.714844 44.195312 L 209.644531 65.101562 L 221.714844 86.003906 L 245.851562 86.003906 L 257.921875 65.101562 Z M 244.6875 46.214844 L 255.59375 65.101562 L 244.6875 83.988281 L 222.875 83.988281 L 211.972656 65.101562 L 222.875 46.214844 L 244.6875 46.214844 " fill-opacity="1" fill-rule="nonzero"/><path fill="#2b1e59" d="M 451.859375 49.839844 L 427.722656 49.839844 L 415.652344 70.746094 L 427.722656 91.648438 L 451.859375 91.648438 L 463.929688 70.746094 Z M 450.695312 51.855469 L 461.597656 70.746094 L 450.695312 89.632812 L 428.882812 89.632812 L 417.980469 70.746094 L 428.882812 51.855469 L 450.695312 51.855469 " fill-opacity="1" fill-rule="nonzero"/><path fill="#2b1e59" d="M 67.960938 52.863281 L 22.652344 52.863281 L 0 92.105469 L 22.652344 131.339844 L 67.960938 131.339844 L 90.617188 92.105469 Z M 66.800781 54.878906 L 88.289062 92.105469 L 66.800781 129.320312 L 23.816406 129.320312 L 2.328125 92.105469 L 23.816406 54.878906 L 66.800781 54.878906 " fill-opacity="1" fill-rule="nonzero"/></svg>