<svg xmlns="http://www.w3.org/2000/svg" xmlns:xlink="http://www.w3.org/1999/xlink" width="450" zoomAndPan="magnify" viewBox="0 0 337.5 106.499997" height="142" preserveAspectRatio="xMidYMid meet" version="1.0"><defs><clipPath id="869c587b39"><path d="M 271 50 L 335.714844 50 L 335.714844 106 L 271 106 Z M 271 50 " clip-rule="nonzero"/></clipPath><clipPath id="302807a0d9"><path d="M 0.539062 37 L 65 37 L 65 94 L 0.539062 94 Z M 0.539062 37 " clip-rule="nonzero"/></clipPath></defs><g clip-path="url(#869c587b39)"><path fill="#14df47" d="M 319.628906 50.226562 L 287.457031 50.226562 L 271.367188 78.089844 L 287.457031 105.953125 L 319.628906 105.953125 L 335.714844 78.089844 L 319.628906 50.226562 " fill-opacity="1" fill-rule="nonzero"/></g><path fill="#13f24b" d="M 126.078125 9.574219 L 93.90625 9.574219 L 77.820312 37.4375 L 93.90625 65.300781 L 126.078125 65.300781 L 142.164062 37.4375 L 126.078125 9.574219 " fill-opacity="1" fill-rule="nonzero"/><path fill="#0ead36" d="M 212.375 7.285156 L 193.304688 7.285156 L 183.765625 23.800781 L 193.304688 40.320312 L 212.375 40.320312 L 221.914062 23.800781 L 212.375 7.285156 " fill-opacity="1" fill-rule="nonzero"/><path fill="#0ead36" d="M 72.671875 48.792969 L 53.597656 48.792969 L 44.058594 65.3125 L 53.597656 81.828125 L 72.671875 81.828125 L 82.207031 65.3125 L 72.671875 48.792969 " fill-opacity="1" fill-rule="nonzero"/><path fill="#00721d" d="M 276.824219 -0.015625 L 255.335938 -0.015625 L 244.59375 18.589844 L 255.335938 37.199219 L 276.824219 37.199219 L 287.570312 18.589844 L 276.824219 -0.015625 " fill-opacity="1" fill-rule="nonzero"/><path fill="#00721d" d="M 131.390625 39.347656 L 109.90625 39.347656 L 99.164062 57.953125 L 109.90625 76.5625 L 131.390625 76.5625 L 142.136719 57.953125 L 131.390625 39.347656 " fill-opacity="1" fill-rule="nonzero"/><path fill="#14df47" d="M 238.039062 29.328125 L 205.863281 29.328125 L 189.777344 57.191406 L 205.863281 85.054688 L 238.039062 85.054688 L 254.125 57.191406 Z M 237.214844 30.757812 L 252.472656 57.191406 L 237.214844 83.625 L 206.691406 83.625 L 191.429688 57.191406 L 206.691406 30.757812 L 237.214844 30.757812 " fill-opacity="1" fill-rule="nonzero"/><path fill="#13f24b" d="M 267.074219 18.304688 L 234.898438 18.304688 L 218.808594 46.167969 L 234.898438 74.03125 L 267.074219 74.03125 L 283.160156 46.167969 Z M 266.246094 19.734375 L 281.507812 46.167969 L 266.246094 72.601562 L 235.722656 72.601562 L 220.460938 46.167969 L 235.722656 19.734375 L 266.246094 19.734375 " fill-opacity="1" fill-rule="nonzero"/><path fill="#0ead36" d="M 175.125 31.332031 L 157.984375 31.332031 L 149.414062 46.175781 L 157.984375 61.019531 L 175.125 61.019531 L 183.695312 46.175781 Z M 174.296875 32.761719 L 182.042969 46.175781 L 174.296875 59.585938 L 158.808594 59.585938 L 151.066406 46.175781 L 158.808594 32.761719 L 174.296875 32.761719 " fill-opacity="1" fill-rule="nonzero"/><path fill="#0ead36" d="M 321.414062 35.339844 L 304.273438 35.339844 L 295.703125 50.183594 L 304.273438 65.027344 L 321.414062 65.027344 L 329.984375 50.183594 Z M 320.585938 36.769531 L 328.328125 50.183594 L 320.585938 63.597656 L 305.097656 63.597656 L 297.355469 50.183594 L 305.097656 36.769531 L 320.585938 36.769531 " fill-opacity="1" fill-rule="nonzero"/><g clip-path="url(#302807a0d9)"><path fill="#00721d" d="M 48.800781 37.484375 L 16.625 37.484375 L 0.539062 65.351562 L 16.625 93.210938 L 48.800781 93.210938 L 64.886719 65.351562 Z M 47.976562 38.917969 L 63.234375 65.351562 L 47.976562 91.78125 L 17.453125 91.78125 L 2.191406 65.351562 L 17.453125 38.917969 L 47.976562 38.917969 " fill-opacity="1" fill-rule="nonzero"/></g></svg>